<?xml version="1.0" encoding="UTF-8"?><!DOCTYPE svg PUBLIC "-//W3C//DTD SVG 1.0//EN" "http://www.w3.org/TR/2001/REC-SVG-20010904/DTD/svg10.dtd" []><svg xmlns="http://www.w3.org/2000/svg" xmlns:xlink="http://www.w3.org/1999/xlink" height="132.3" preserveAspectRatio="xMidYMid meet" version="1.0" viewBox="-0.0 -0.0 132.3 132.3" width="132.3" zoomAndPan="magnify"><g id="change1_1"><path color="#000" d="m 1560.8594,178.51798 a 0.59006149,0.59006149 0 0 0 -0.5905,0.59 v 62.6939 a 0.59006149,0.59006149 0 0 0 0.5905,0.5905 h 62.6919 a 0.59006149,0.59006149 0 0 0 0.5905,-0.5905 c 0,-34.9442 -28.34,-63.2839 -63.2824,-63.2839 z m 0.5905,1.2097 c 33.8307,0.3185 61.1632,27.6513 61.4817,61.4837 h -61.4817 z m 3.1815,1.4274 c 0,0 -1.9077,-0.027 -1.9077,3.2758 0,2.9087 2.6961,-2.3922 4.3933,-2.1977 1.3615,0.156 -4.3933,3.1694 -4.3933,7.7202 0,4.1573 7.749,-7.2684 9.5747,-6.8976 1.5135,0.3073 -9.5747,9.2412 -9.5747,12.9216 0,3.2868 12.1882,-12.357 13.8461,-11.8928 1.3636,0.3819 -13.8461,13.7953 -13.8461,17.3196 0,3.1307 15.9675,-16.7178 17.9361,-16.0121 1.6908,0.6062 -17.9361,18.1634 -17.9361,22.1739 0,3.6168 20.7455,-21.1116 22.0466,-20.5344 1.0392,0.461 -22.0466,22.1453 -22.0466,26.0538 0,3.5149 23.9733,-25.1975 25.9822,-24.1261 1.7613,0.9397 -25.9822,27.016 -25.9822,30.7504 0,3.3407 28.0242,-29.6622 30.0199,-28.3909 1.7636,1.1235 -30.0199,31.4367 -30.0199,35.0571 0,3.2267 32.3219,-33.5446 33.4042,-32.7478 0.863,0.6353 -33.4042,34.4246 -33.4042,37.7868 0,2.9687 35.0265,-36.5701 36.0951,-35.6869 0.8599,0.7107 -36.0951,37.3011 -36.0951,40.6753 0,2.9808 37.5636,-39.4493 38.7787,-38.3189 1.0174,0.9464 -40.5049,41.8522 -36.7188,41.8522 3.4139,0 38.6104,-40.0401 39.5609,-39.0318 0.7647,0.8112 -37.6633,39.0318 -34.6094,39.0318 2.6819,0 35.8659,-37.6869 36.9063,-36.4495 0.8654,1.029 -35.5105,36.4495 -31.5713,36.4495 3.5673,0 33.0395,-34.6941 34.3754,-32.8388 1.175,1.6318 -31.5469,32.8388 -27.8289,32.8388 3.3458,0 29.4244,-30.5646 30.3251,-29.0954 0.7544,1.2304 -28.4416,29.0954 -24.6556,29.0954 3.414,0 25.9857,-26.8672 26.7811,-25.3347 0.6634,1.2786 -24.6677,25.3347 -21.364,25.3347 2.9316,0 22.2376,-23.6891 23.2518,-21.3255 0.8981,2.0928 -20.7979,21.3255 -16.6487,21.3255 3.7772,0 17.8528,-18.4421 18.6036,-16.1241 0.6559,2.0247 -15.7895,16.1241 -12.1284,16.1241 3.2892,0 13.0448,-13.1397 13.4539,-11.4087 0.3346,1.4162 -12.0268,11.4087 -7.8719,11.4087 3.7828,0 8.5099,-8.6802 8.9146,-5.7499 0.3572,2.5869 -5.97,5.7499 -2.0988,5.7499 2.9918,0 3.2846,-1.3013 3.3111,-1.6967 -0.081,0.3037 -0.5017,0.9106 -2.568,0.9106 -2.3829,0 2.6457,-1.7891 2.0988,-5.7494 -0.4994,-3.617 -5.8763,5.7494 -8.915,5.7494 -2.6667,0 8.5041,-8.7328 7.8718,-11.4082 -0.558,-2.3606 -10.9082,11.4082 -13.4533,11.4082 -2.1731,0 13.1638,-12.9264 12.1283,-16.1237 -0.9407,-2.9042 -15.5709,16.1237 -18.6039,16.1237 -2.6612,0 18.0111,-18.1495 16.6485,-21.3251 -1.2465,-2.9048 -21.0643,21.3251 -23.2518,21.3251 -1.8155,0 22.5548,-23.0395 21.3639,-25.3343 -1.0589,-2.0407 -24.1111,25.3343 -26.781,25.3343 -2.2979,0 25.996,-26.9097 24.6562,-29.095 -1.1934,-1.9466 -27.724,29.095 -30.3258,29.095 -2.2297,0 29.6475,-30.313 27.8289,-32.8384 -1.6575,-2.3019 -31.552,32.8384 -34.3752,32.8384 -2.4511,0 33.1375,-34.5869 31.5719,-36.4491 -1.3908,-1.6538 -34.9686,36.4491 -36.9066,36.4491 -1.5657,0 36.1166,-37.4318 34.609,-39.0313 -1.322,-1.4024 -36.891,39.0313 -39.561,39.0313 -2.2978,0 38.5286,-40.1689 36.7196,-41.8517 -1.6113,-1.4987 -38.7794,40.5126 -38.7794,38.3189 0,-1.8002 37.7903,-39.2743 36.0951,-40.6754 -1.4864,-1.2285 -36.0951,37.8688 -36.0951,35.687 0,-1.7882 35.1446,-36.5061 33.4042,-37.7873 -1.5209,-1.1198 -33.4042,35.188 -33.4042,32.7481 0,-2.0462 32.7122,-33.3419 30.02,-35.0569 -2.4602,-1.5672 -30.02,30.9446 -30.02,28.3907 0,-2.1603 28.7328,-29.2829 25.9821,-30.7502 -2.5034,-1.3354 -25.9821,26.8541 -25.9821,24.1261 0,-2.3344 24.1348,-25.1278 22.0473,-26.0539 -1.8255,-0.8098 -22.0473,23.3644 -22.0473,20.5343 0,-2.4365 20.7389,-21.1696 17.9367,-22.1742 -2.5244,-0.9049 -17.9367,18.3558 -17.9367,16.012 0,-1.9503 16.3869,-16.6081 13.8465,-17.3195 -2.2461,-0.629 -13.8465,14.3931 -13.8465,11.8932 0,-2.1063 12.3371,-12.3607 9.5752,-12.9217 -2.4499,-0.4975 -9.5752,10.268 -9.5752,6.8978 0,-2.9769 7.098,-7.4105 4.3937,-7.7203 -2.3686,-0.2713 -4.3937,4.3195 -4.3937,2.1977 0,-1.7281 1.1651,-2.4901 1.1651,-2.4901 z m -9.4937,3.0847 c -34.9425,0 -63.2819,28.3398 -63.2819,63.2839 0,34.9441 28.3394,63.286 63.2819,63.286 34.9423,0 63.2818,-28.3419 63.2818,-63.286 a 0.59006149,0.59006149 0 0 0 -0.59,-0.5885 h -62.1013 v -62.1048 a 0.59006149,0.59006149 0 0 0 -0.5905,-0.5906 z m -0.5907,1.2097 v 62.0742 a 0.59006149,0.59006149 0 0 0 0.5907,0.5905 h 62.0721 c -0.3204,34.0312 -27.9668,61.5145 -62.0721,61.5145 -34.3047,0 -62.1015,-27.7985 -62.1015,-62.105 0,-34.107 27.4815,-61.7538 61.5108,-62.0742 z" style="-inkscape-stroke:none" transform="translate(-1491.856 -178.518)"/></g></svg>